<svg id="Capa_1" enable-background="new 0 0 508.18 508.18" height="512" viewBox="0 0 508.18 508.18" width="512" xmlns="http://www.w3.org/2000/svg"><g><g><path d="m217.179 464.656 36.785-10 36.785 10v3.069c0 20.316-16.469 36.785-36.785 36.785-20.316 0-36.785-16.469-36.785-36.785z" fill="#60b7ff"/><path d="m281.06 464.656h-64.192c-7.242 0-13.113-5.871-13.113-13.113v-87.305l50.209-10 40.209 10v87.305c.001 7.242-5.87 13.113-13.113 13.113z" fill="#c4e2ff"/><path d="m277.174 360.01v91.533c0 7.242-5.871 13.113-13.113 13.113h27c7.242 0 13.114-5.871 13.114-13.113v-87.305z" fill="#8ac9fe"/><path d="m373.847 199.78c0-71.112-47.205-128.864-118.108-129.747-71.59-.892-131.407 58.152-131.407 129.747 0 38.383 16.667 72.87 43.158 96.625 19.202 17.22 31.72 40.66 35.975 66.098l.29 1.734h100.419l.245-1.467c4.329-25.882 7.533-49.323 26.947-66.979 26.098-23.732 42.481-57.957 42.481-96.011z" fill="#fed402"/><path d="m255.739 70.033c-5.072-.063-10.082.185-15.019.706 65.255 6.813 116.127 61.982 116.127 129.041 0 38.055-16.384 72.279-42.481 96.012-19.414 17.656-32.618 41.096-36.947 66.979l-.245 1.467h27l.245-1.467c4.329-25.882 17.533-49.323 36.947-66.979 26.097-23.733 42.481-57.957 42.481-96.012 0-71.113-57.205-128.864-128.108-129.747z" fill="#fac600"/><path d="m341.739 210.67v-21.78c0-2.761-2.238-5-5-5h-20.544c-1.524-5.975-3.89-11.612-6.96-16.783l14.533-14.533c1.953-1.953 1.953-5.118 0-7.071l-15.4-15.4c-1.953-1.953-5.118-1.953-7.071 0l-14.533 14.533c-5.171-3.07-10.808-5.436-16.783-6.961v-20.544c0-2.761-2.239-5-5-5h-21.781c-2.761 0-5 2.239-5 5v20.544c-5.975 1.524-11.612 3.89-16.783 6.96l-14.533-14.533c-1.953-1.953-5.118-1.953-7.071 0l-15.4 15.4c-1.953 1.953-1.953 5.118 0 7.071l14.533 14.533c-3.07 5.171-5.436 10.808-6.96 16.783h-20.544c-2.761 0-5 2.239-5 5v21.78c0 2.761 2.239 5 5 5h20.544c1.524 5.975 3.89 11.612 6.96 16.783l-14.533 14.533c-1.953 1.953-1.953 5.118 0 7.071l15.4 15.4c1.953 1.953 5.118 1.953 7.071 0l14.533-14.533c5.171 3.07 10.808 5.436 16.783 6.96v20.544c0 2.761 2.239 5 5 5h21.78c2.761 0 5-2.239 5-5v-20.544c5.975-1.524 11.612-3.89 16.783-6.96l14.533 14.533c1.953 1.953 5.118 1.953 7.071 0l15.4-15.4c1.953-1.953 1.953-5.118 0-7.071l-14.533-14.533c3.07-5.171 5.436-10.808 6.961-16.783h20.544c2.761.001 5-2.238 5-4.999zm-87.649 20.079c-17.104 0-30.969-13.865-30.969-30.969s13.865-30.969 30.969-30.969 30.969 13.865 30.969 30.969-13.866 30.969-30.969 30.969z" fill="#efedef"/></g><g id="_x31_3_idea_1_"><path d="m254.09 48.662c4.142 0 7.5-3.358 7.5-7.5v-33.662c0-4.142-3.358-7.5-7.5-7.5-4.143 0-7.5 3.358-7.5 7.5v33.662c0 4.142 3.357 7.5 7.5 7.5z"/><path d="m384.741 58.511-23.803 23.803c-2.929 2.929-2.929 7.678 0 10.606 1.465 1.464 3.385 2.197 5.304 2.197s3.839-.732 5.304-2.197l23.803-23.803c2.929-2.929 2.929-7.678 0-10.606-2.93-2.928-7.678-2.928-10.608 0z"/><path d="m136.634 306.618-23.803 23.803c-2.929 2.929-2.929 7.678 0 10.606 1.464 1.464 3.384 2.197 5.303 2.197s3.839-.732 5.303-2.197l23.803-23.803c2.929-2.929 2.929-7.678 0-10.606-2.928-2.929-7.677-2.929-10.606 0z"/><path d="m136.634 92.92c1.464 1.464 3.384 2.197 5.303 2.197s3.839-.732 5.303-2.197c2.929-2.929 2.929-7.678 0-10.606l-23.803-23.803c-2.929-2.929-7.678-2.929-10.606 0-2.929 2.929-2.929 7.678 0 10.606z"/><path d="m371.546 306.618c-2.93-2.929-7.678-2.929-10.607 0s-2.929 7.678 0 10.606l23.803 23.803c1.465 1.464 3.385 2.197 5.304 2.197s3.839-.732 5.304-2.197c2.929-2.929 2.929-7.678 0-10.606z"/><path d="m95.483 192.269h-33.663c-4.142 0-7.5 3.358-7.5 7.5s3.358 7.5 7.5 7.5h33.662c4.142 0 7.5-3.358 7.5-7.5.001-4.142-3.357-7.5-7.499-7.5z"/><path d="m446.359 192.269h-33.662c-4.143 0-7.5 3.358-7.5 7.5s3.357 7.5 7.5 7.5h33.662c4.143 0 7.5-3.358 7.5-7.5s-3.357-7.5-7.5-7.5z"/><path d="m314.384 405.2c4.143 0 7.5-3.358 7.5-7.5s-3.357-7.5-7.5-7.5h-2.71v-25.35l.143-.853c1.531-9.156 4.28-18.117 8.171-26.633 1.721-3.768.061-8.217-3.706-9.938-3.768-1.722-8.218-.062-9.938 3.706-3.755 8.221-6.567 16.812-8.406 25.596h-87.929c-5.261-25.567-18.462-48.836-37.51-65.917-22.502-20.178-36.687-47.757-39.941-77.655-.448-4.118-4.147-7.091-8.268-6.645-4.118.448-7.093 4.15-6.644 8.268 3.655 33.58 19.579 64.548 44.839 87.199 17.644 15.822 29.571 37.753 33.585 61.751l.188 1.122v25.349h-2.46c-4.142 0-7.5 3.358-7.5 7.5s3.358 7.5 7.5 7.5h2.46v18.473h-2.46c-4.142 0-7.5 3.358-7.5 7.5s3.358 7.5 7.5 7.5h2.46v12.86c0 8.876 5.65 16.437 13.533 19.334 1.091 15.654 10.266 29.46 24.494 36.529 1.072.533 2.21.785 3.331.785 2.758 0 5.412-1.527 6.723-4.165 1.843-3.71.33-8.211-3.38-10.054-8.694-4.32-14.528-12.443-15.939-21.816h57.894c-1.41 9.373-7.244 17.496-15.938 21.815-3.71 1.843-5.223 6.345-3.38 10.054 1.31 2.637 3.965 4.164 6.723 4.164 1.121 0 2.26-.252 3.331-.785 14.228-7.069 23.402-20.875 24.493-36.528 7.884-2.897 13.533-10.458 13.533-19.334v-12.86h2.71c4.143 0 7.5-3.358 7.5-7.5s-3.357-7.5-7.5-7.5h-2.71v-18.472zm-103.129-33.473h85.418v18.473h-85.418zm85.419 79.805c0 3.095-2.518 5.613-5.613 5.613h-74.192c-3.095 0-5.613-2.518-5.613-5.613v-12.86h85.418zm0-27.86h-85.418v-18.472h85.418z"/><path d="m254.09 238.238c21.212 0 38.469-17.257 38.469-38.469s-17.258-38.469-38.469-38.469c-21.212 0-38.469 17.257-38.469 38.469s17.257 38.469 38.469 38.469zm0-61.938c12.94 0 23.469 10.528 23.469 23.469s-10.528 23.469-23.469 23.469-23.469-10.528-23.469-23.469 10.528-23.469 23.469-23.469z"/><path d="m171.441 176.379c-6.893 0-12.5 5.607-12.5 12.5v21.78c0 6.893 5.607 12.5 12.5 12.5h14.97c.935 2.703 2.032 5.349 3.287 7.924l-10.589 10.589c-4.874 4.874-4.874 12.804 0 17.677l15.4 15.4c4.874 4.874 12.804 4.874 17.678 0l10.589-10.588c2.575 1.255 5.221 2.352 7.924 3.287v14.97c0 6.893 5.607 12.5 12.5 12.5h21.779c6.893 0 12.5-5.607 12.5-12.5v-14.97c2.703-.935 5.349-2.032 7.924-3.287l10.589 10.588c2.36 2.361 5.5 3.662 8.839 3.662s6.478-1.3 8.84-3.661l15.4-15.401c4.872-4.874 4.872-12.803 0-17.677l-10.589-10.589c1.255-2.575 2.353-5.221 3.286-7.924h14.971c6.893 0 12.5-5.607 12.5-12.5v-21.78c0-6.893-5.607-12.5-12.5-12.5h-14.971c-.934-2.703-2.031-5.348-3.286-7.924l10.589-10.589c4.872-4.874 4.872-12.803 0-17.677l-15.401-15.401c-2.361-2.36-5.5-3.66-8.839-3.66s-6.478 1.3-8.839 3.661l-10.589 10.589c-2.575-1.255-5.221-2.353-7.924-3.287v-14.97c0-6.893-5.607-12.5-12.5-12.5h-21.779c-6.893 0-12.5 5.607-12.5 12.5v14.97c-2.703.934-5.349 2.032-7.924 3.287l-10.589-10.589c-4.874-4.874-12.804-4.874-17.678 0l-15.4 15.4c-4.874 4.874-4.874 12.804 0 17.678l10.589 10.589c-1.255 2.575-2.353 5.221-3.288 7.924h-14.969zm32.808-14.586-12.766-12.765 11.865-11.865 12.765 12.766c2.426 2.424 6.183 2.896 9.133 1.145 4.634-2.751 9.616-4.818 14.808-6.142 3.322-.847 5.646-3.839 5.646-7.268v-18.044h16.779v18.044c0 3.428 2.324 6.42 5.647 7.268 5.191 1.324 10.174 3.39 14.808 6.142 2.949 1.752 6.708 1.278 9.133-1.145l12.765-12.766 11.865 11.865-12.766 12.766c-2.424 2.424-2.896 6.185-1.145 9.133 2.751 4.633 4.817 9.615 6.141 14.806.847 3.322 3.839 5.647 7.268 5.647h18.045v16.78h-18.045c-3.429 0-6.42 2.325-7.268 5.647-1.324 5.192-3.39 10.173-6.141 14.806-1.751 2.948-1.279 6.708 1.145 9.133l12.766 12.766-11.865 11.865-12.765-12.765c-2.426-2.425-6.185-2.898-9.133-1.146-4.633 2.751-9.615 4.817-14.808 6.142-3.322.847-5.647 3.839-5.647 7.267v18.044h-16.779v-18.044c0-3.428-2.324-6.42-5.646-7.267-5.192-1.325-10.175-3.392-14.808-6.142-2.949-1.751-6.707-1.278-9.133 1.146l-12.765 12.765-11.865-11.865 12.765-12.766c2.425-2.424 2.896-6.185 1.146-9.133-2.751-4.632-4.817-9.614-6.143-14.807-.847-3.322-3.839-5.646-7.267-5.646h-18.044v-16.78h18.044c3.428 0 6.42-2.324 7.267-5.646 1.325-5.192 3.392-10.175 6.143-14.808 1.751-2.949 1.279-6.709-1.145-9.133z"/><path d="m351.717 103.288c-25.535-25.835-59.587-40.313-95.884-40.765-33.638-.404-66.256 11.745-91.895 34.25-25.407 22.302-41.742 52.735-45.996 85.693-.53 4.108 2.371 7.868 6.479 8.398 4.105.53 7.868-2.371 8.398-6.479 3.786-29.336 18.352-56.447 41.014-76.339 22.849-20.057 51.937-30.914 81.812-30.525 32.328.403 62.658 13.298 85.402 36.31 22.764 23.032 35.3 53.552 35.3 85.938 0 34.358-14.59 67.331-40.027 90.463-3.917 3.563-7.643 7.396-11.074 11.395-2.697 3.144-2.336 7.878.808 10.576 1.414 1.214 3.151 1.809 4.88 1.809 2.112 0 4.212-.887 5.695-2.616 3.03-3.531 6.322-6.917 9.783-10.065 28.558-25.97 44.936-62.987 44.936-101.561-.001-36.36-14.075-70.624-39.631-96.482z"/></g></g></svg>