<svg height="496pt" viewBox="0 0 496 496" width="496pt" xmlns="http://www.w3.org/2000/svg"><path d="m391.601562 212c5.597657 2.558594 10.957032 5.441406 16.160157 8.640625l18.71875-9.121094 34 34-9.121094 18.71875c7.761719 12.480469 13.601563 26.242188 16.960937 40.882813l19.679688 6.878906v48l-19.679688 6.878906c-3.359374 14.640625-9.199218 28.402344-16.960937 40.882813l9.121094 18.71875-34 34-18.71875-9.121094c-12.480469 7.761719-26.242188 13.601563-40.882813 16.960937l-6.878906 19.679688h-48l-6.878906-19.679688c-14.640625-3.359374-28.402344-9.199218-40.882813-16.960937l-18.71875 9.121094-34-34 9.121094-18.71875c-3.199219-5.203125-6.082031-10.5625-8.640625-16.160157-3.519531-7.921874-6.320312-16.160156-8.320312-24.722656l-19.679688-6.878906v-48l19.679688-6.878906c3.359374-14.640625 9.199218-28.402344 16.960937-40.882813l-9.121094-18.71875 34-34 18.71875 9.121094c12.480469-7.761719 26.242188-13.601563 40.882813-16.960937l6.878906-19.679688h48l6.878906 19.679688c8.5625 2 16.800782 4.800781 24.722656 8.320312zm0 0" fill="#ff826e"/><path d="m336 232c57.441406 0 104 46.558594 104 104s-46.558594 104-104 104-104-46.558594-104-104 46.558594-104 104-104zm0 0" fill="#e6e9ed"/><path d="m392 200c0 4.078125-.160156 8-.398438 12-7.921874-3.519531-16.160156-6.320312-24.722656-8.320312l-6.878906-19.679688h-48l-6.878906 19.679688c-14.640625 3.359374-28.402344 9.199218-40.882813 16.960937l-18.71875-9.121094-34 34 9.121094 18.71875c-7.761719 12.480469-13.601563 26.242188-16.960937 40.882813l-19.679688 6.878906v48l19.679688 6.878906c2 8.5625 4.800781 16.800782 8.320312 24.722656-4 .238282-7.921875.398438-12 .398438-93.441406 0-171.359375-66.878906-188.398438-155.359375 28.636719 8.640625 53.039063 28.640625 66.796876 56.238281 5.921874 11.679688 17.921874 19.121094 30.960937 19.121094 19.121094 0 34.640625-15.519531 34.640625-34.640625v-32.480469c0-18.078125-9.039062-34.878906-24-44.878906s-24-26.800781-24-44.878906v-5.359375c0-24.480469-8.160156-48.242188-23.199219-67.601563l-11.519531-14.800781c22.398438-23.519531 50.796875-41.28125 82.71875-51.039063v29.757813c0 16.882813 5.28125 33.28125 15.039062 47.042969l.800782 1.039062c15.121094 21.199219 39.679687 33.839844 65.761718 33.839844 14.636719 0 29.039063 4 41.597657 11.519531l13.761719 8.242188c4.640624 2.796875 9.839843 4.238281 15.199218 4.238281h.480469c17.359375 0 31.359375-14 31.359375-31.359375 0-15.199219 8.160156-29.28125 21.441406-36.878906l2.238282-1.363281h.082031c25.199219 32.480468 40.238281 73.28125 40.238281 117.601562zm0 0" fill="#69d6f4"/><path d="m346.480469 296.558594c-1.601563-2.480469-2.480469-5.4375-2.480469-8.558594 0-8.800781 7.199219-16 16-16s16 7.199219 16 16-7.199219 16-16 16c-5.679688 0-10.640625-2.960938-13.519531-7.441406zm0 0" fill="#ffc729"/><path d="m346.480469 375.441406c2.878906-4.480468 7.839843-7.441406 13.519531-7.441406 8.800781 0 16 7.199219 16 16s-7.199219 16-16 16-16-7.199219-16-16c0-3.121094.878906-6.078125 2.480469-8.558594zm0 0" fill="#ffc729"/><path d="m351.679688 82.398438-2.238282 1.363281c-13.28125 7.597656-21.441406 21.679687-21.441406 36.878906 0 17.359375-14 31.359375-31.359375 31.359375h-.480469c-5.359375 0-10.558594-1.441406-15.199218-4.238281l-13.761719-8.242188c-12.558594-7.519531-26.960938-11.519531-41.597657-11.519531-26.082031 0-50.640624-12.640625-65.761718-33.839844l-.800782-1.039062c-9.757812-13.761719-15.039062-30.160156-15.039062-47.042969v-29.757813c17.679688-5.441406 36.480469-8.320312 56-8.320312 61.679688 0 116.558594 29.121094 151.679688 74.398438zm0 0" fill="#b4dd7f"/><path d="m308.238281 323.121094c2.402344 3.679687 3.761719 8.160156 3.761719 12.878906s-1.359375 9.199219-3.761719 12.878906c-4.238281 6.722656-11.679687 11.121094-20.238281 11.121094-13.28125 0-24-10.71875-24-24s10.71875-24 24-24c8.558594 0 16 4.398438 20.238281 11.121094zm0 0" fill="#fcd770"/><path d="m144 244.878906v32.480469c0 19.121094-15.519531 34.640625-34.640625 34.640625-13.039063 0-25.039063-7.441406-30.960937-19.121094-13.757813-27.597656-38.160157-47.597656-66.796876-56.238281h-.082031c-2.320312-11.839844-3.519531-24.082031-3.519531-36.640625 0-51.441406 20.238281-98.160156 53.28125-132.640625l11.519531 14.800781c15.039063 19.359375 23.199219 43.121094 23.199219 67.601563v5.359375c0 18.078125 9.039062 34.878906 24 44.878906s24 26.800781 24 44.878906zm0 0" fill="#b4dd7f"/><path d="m360 312c13.230469 0 24-10.769531 24-24s-10.769531-24-24-24-24 10.769531-24 24c0 1.945312.296875 3.808594.734375 5.625l-27.207031 18.863281c-5.695313-5.222656-13.207032-8.488281-21.527344-8.488281-17.648438 0-32 14.351562-32 32s14.351562 32 32 32c8.320312 0 15.832031-3.265625 21.527344-8.488281l27.207031 18.863281c-.4375 1.816406-.734375 3.679688-.734375 5.625 0 13.230469 10.769531 24 24 24s24-10.769531 24-24-10.769531-24-24-24c-5.464844 0-10.441406 1.902344-14.480469 4.992188l-27.296875-18.929688c1.066406-3.183594 1.777344-6.527344 1.777344-10.0625s-.710938-6.878906-1.777344-10.0625l27.296875-18.929688c4.039063 3.089844 9.015625 4.992188 14.480469 4.992188zm0-32c4.40625 0 8 3.585938 8 8s-3.59375 8-8 8-8-3.585938-8-8 3.59375-8 8-8zm-72 72c-8.824219 0-16-7.175781-16-16s7.175781-16 16-16 16 7.175781 16 16-7.175781 16-16 16zm72 24c4.40625 0 8 3.585938 8 8s-3.59375 8-8 8-8-3.585938-8-8 3.59375-8 8-8zm0 0"/><path d="m336 224c-61.761719 0-112 50.238281-112 112s50.238281 112 112 112 112-50.238281 112-112-50.238281-112-112-112zm0 208c-52.9375 0-96-43.0625-96-96s43.0625-96 96-96 96 43.0625 96 96-43.0625 96-96 96zm0 0"/><path d="m475.0625 299.015625c-3.261719-12.3125-8.160156-24.105469-14.589844-35.167969l9.648438-20-41.976563-41.976562-20 9.648437c-2.753906-1.597656-5.550781-3.105469-8.390625-4.511719.09375-2.328124.246094-4.65625.246094-7.007812 0-110.28125-89.71875-200-200-200s-200 89.71875-200 200 89.71875 200 200 200c2.359375 0 4.679688-.152344 7.007812-.238281 1.40625 2.839843 2.914063 5.636719 4.511719 8.390625l-9.648437 20 41.976562 41.976562 20-9.648437c11.0625 6.429687 22.855469 11.328125 35.160156 14.589843l7.3125 20.929688h59.359376l7.3125-20.929688c12.304687-3.261718 24.097656-8.167968 35.160156-14.589843l20 9.648437 41.976562-41.976562-9.648437-20c6.429687-11.0625 11.328125-22.847656 14.589843-35.167969l20.929688-7.304687v-59.359376zm-135.253906-218.441406c-12.359375 9.472656-19.808594 24.304687-19.808594 40.105469 0 12.855468-10.480469 23.320312-23.824219 23.320312-3.894531 0-7.726562-1.0625-11.085937-3.078125l-13.769532-8.257813c-13.808593-8.289062-29.617187-12.664062-45.710937-12.664062-23.480469 0-45.640625-11.40625-59.296875-30.527344l-.746094-1.03125c-8.878906-12.433594-13.566406-27.074218-13.566406-42.34375v-23.707031c15.3125-4.144531 31.390625-6.390625 48-6.390625 55.902344 0 106.03125 25.097656 139.808594 64.574219zm-278.96875-.75 5.648437 7.265625c13.871094 17.832031 21.511719 40.09375 21.511719 62.695312v5.375c0 20.742188 10.304688 40 27.558594 51.503906 12.800781 8.527344 20.441406 22.808594 20.441406 38.183594v32.542969c0 14.671875-11.9375 26.609375-26.609375 26.609375-10.144531 0-19.261719-5.640625-23.796875-14.710938-13.746094-27.480468-38.007812-48.511718-66.976562-58.585937-1.6875-9.992187-2.617188-20.238281-2.617188-30.703125 0-45.902344 16.9375-87.902344 44.839844-120.175781zm139.160156 304.175781c-84.257812 0-155.414062-56.945312-177.144531-134.359375 20.816406 9.679687 38.082031 26.121094 48.417969 46.808594 7.269531 14.527343 21.878906 23.550781 38.117187 23.550781 23.496094 0 42.609375-19.121094 42.609375-42.609375v-32.542969c0-20.742187-10.304688-40-27.558594-51.503906-12.800781-8.527344-20.441406-22.808594-20.441406-38.183594v-5.375c0-26.136718-8.832031-51.890625-24.878906-72.511718l-7.167969-9.226563c18.152344-17.621094 39.902344-31.558594 64.046875-40.550781v18.59375c0 18.621094 5.71875 36.484375 16.558594 51.664062l.746094 1.03125c16.640624 23.304688 43.671874 37.214844 72.304687 37.214844 13.199219 0 26.160156 3.59375 37.488281 10.382812l13.765625 8.257813c5.839844 3.503906 12.519531 5.359375 19.792969 5.359375 21.6875 0 39.34375-17.640625 39.34375-39.320312 0-10.855469 5.144531-21.023438 13.671875-27.503907 21.574219 30.144531 34.328125 67.007813 34.328125 106.824219 0 .128906-.015625.257812-.015625.382812-3.625-1.277343-7.273437-2.472656-10.992187-3.453124l-7.3125-20.929688h-59.359376l-7.3125 20.929688c-12.304687 3.261718-24.097656 8.167968-35.160156 14.589843l-20-9.648437-41.976562 41.976562 9.648437 20c-6.429687 11.0625-11.328125 22.847656-14.589843 35.167969l-20.929688 7.304687v59.359376l20.9375 7.304687c.984375 3.71875 2.175781 7.375 3.453125 11-.132813 0-.261719.015625-.390625.015625zm280-29.679688-18.449219 6.441407-1 4.285156c-3.160156 13.59375-8.519531 26.527344-15.949219 38.449219l-2.335937 3.742187 8.503906 17.632813-25.914062 25.914062-17.632813-8.503906-3.734375 2.328125c-11.929687 7.429687-24.863281 12.796875-38.457031 15.957031l-4.289062.992188-6.421876 18.441406h-36.640624l-6.441407-18.449219-4.285156-.992187c-13.59375-3.167969-26.527344-8.527344-38.457031-15.957032l-3.734375-2.328124-17.632813 8.503906-25.914062-25.914063 8.503906-17.632812-2.335938-3.742188c-7.429687-11.914062-12.796874-24.847656-15.949218-38.449219l-1-4.285156-18.433594-6.433594v-36.640624l18.449219-6.441407 1-4.285156c3.160156-13.59375 8.519531-26.527344 15.949219-38.449219l2.335937-3.742187-8.503906-17.632813 25.914062-25.914062 17.632813 8.503906 3.734375-2.328125c11.929687-7.429687 24.863281-12.796875 38.449219-15.957031l4.285156-.992188 6.433594-18.441406h36.640624l6.441407 18.449219 4.285156.992187c13.585937 3.167969 26.519531 8.527344 38.449219 15.957032l3.734375 2.328124 17.632812-8.503906 25.914063 25.914063-8.503906 17.632812 2.335937 3.742188c7.429687 11.914062 12.796875 24.847656 15.949219 38.449219l1 4.285156 18.441406 6.433594zm0 0"/></svg>