<?xml version="1.0" encoding="iso-8859-1"?>
<!-- Generator: Adobe Illustrator 19.0.0, SVG Export Plug-In . SVG Version: 6.00 Build 0)  -->
<svg version="1.1" id="Capa_1" xmlns="http://www.w3.org/2000/svg" xmlns:xlink="http://www.w3.org/1999/xlink" x="0px" y="0px"
	 viewBox="0 0 511.99 511.99" style="enable-background:new 0 0 511.99 511.99;" xml:space="preserve">
<g>
	<path style="fill:#E5E5DA;" d="M256,170.627c-4.268,0-7.726-3.459-7.726-7.726V56.231c0-4.267,3.459-7.726,7.726-7.726
		s7.726,3.459,7.726,7.726V162.9C263.726,167.168,260.268,170.627,256,170.627z"/>
	<path style="fill:#E5E5DA;" d="M256,463.495c-4.268,0-7.726-3.459-7.726-7.726V349.1c0-4.267,3.459-7.726,7.726-7.726
		s7.726,3.459,7.726,7.726v106.669C263.726,460.036,260.268,463.495,256,463.495z"/>
	<path style="fill:#E5E5DA;" d="M455.77,263.726H349.1c-4.268,0-7.726-3.459-7.726-7.726s3.459-7.726,7.726-7.726h106.67
		c4.268,0,7.726,3.459,7.726,7.726C463.496,260.267,460.037,263.726,455.77,263.726z"/>
	<path style="fill:#E5E5DA;" d="M162.9,263.726H56.23c-4.268,0-7.726-3.459-7.726-7.726s3.459-7.726,7.726-7.726H162.9
		c4.268,0,7.726,3.459,7.726,7.726C170.627,260.267,167.168,263.726,162.9,263.726z"/>
	<path style="fill:#E5E5DA;" d="M321.831,197.895c-1.978,0-3.955-0.754-5.464-2.263c-3.017-3.017-3.017-7.909,0-10.927
		l75.428-75.427c3.018-3.018,7.909-3.017,10.928,0c3.017,3.017,3.017,7.909,0,10.927l-75.428,75.427
		C325.786,197.141,323.808,197.895,321.831,197.895z"/>
	<path style="fill:#E5E5DA;" d="M159.411,360.315c-1.977,0-3.955-0.755-5.464-2.263c-3.017-3.017-3.017-7.909,0-10.927
		l30.758-30.758c3.018-3.017,7.909-3.017,10.928,0c3.017,3.017,3.017,7.909,0,10.927l-30.758,30.758
		C163.366,359.56,161.388,360.315,159.411,360.315z"/>
	<path style="fill:#E5E5DA;" d="M114.741,404.984c-1.978,0-3.955-0.754-5.464-2.263c-3.017-3.018-3.017-7.909,0.001-10.927
		l25.535-25.534c3.016-3.018,7.908-3.018,10.927,0c3.017,3.018,3.017,7.909-0.001,10.927l-25.535,25.534
		C118.696,404.23,116.718,404.984,114.741,404.984z"/>
	<path style="fill:#E5E5DA;" d="M397.259,404.984c-1.977,0-3.955-0.755-5.464-2.263l-75.428-75.427
		c-3.017-3.017-3.017-7.909,0-10.927c3.018-3.017,7.909-3.017,10.928,0l75.428,75.427c3.017,3.017,3.017,7.909,0,10.927
		C401.213,404.23,399.235,404.984,397.259,404.984z"/>
	<path style="fill:#E5E5DA;" d="M190.169,197.895c-1.977,0-3.955-0.755-5.464-2.263l-75.428-75.427
		c-3.017-3.017-3.017-7.909,0-10.927c3.018-3.017,7.909-3.017,10.928,0l75.428,75.427c3.017,3.017,3.017,7.909,0,10.927
		C194.124,197.141,192.146,197.895,190.169,197.895z"/>
</g>
<circle style="fill:#B4E66E;" cx="256" cy="255.97" r="93.13"/>
<circle style="fill:#A0D755;" cx="256" cy="255.97" r="62.28"/>
<circle style="fill:#FF5F5F;" cx="256" cy="255.97" r="40.42"/>
<g>
	<circle style="fill:#00C3FF;" cx="256" cy="28.11" r="28.11"/>
	<circle style="fill:#00C3FF;" cx="256" cy="483.88" r="28.11"/>
	<circle style="fill:#00C3FF;" cx="483.88" cy="256" r="28.11"/>
	<circle style="fill:#00C3FF;" cx="28.11" cy="256" r="28.11"/>
	<circle style="fill:#00C3FF;" cx="417.14" cy="94.86" r="28.11"/>
	<circle style="fill:#00C3FF;" cx="94.86" cy="417.14" r="28.11"/>
	<circle style="fill:#00C3FF;" cx="417.14" cy="417.14" r="28.11"/>
</g>
<circle style="fill:#FFF082;" cx="94.86" cy="94.86" r="28.11"/>
<g>
</g>
<g>
</g>
<g>
</g>
<g>
</g>
<g>
</g>
<g>
</g>
<g>
</g>
<g>
</g>
<g>
</g>
<g>
</g>
<g>
</g>
<g>
</g>
<g>
</g>
<g>
</g>
<g>
</g>
</svg>
